<svg width="3127" height="1421" viewBox="0 0 3127 1421" fill="none" xmlns="http://www.w3.org/2000/svg">
<rect width="3127" height="1421" fill="url(#paint0_linear_57_286)"/>
<rect opacity="0.3" width="296.249" height="296.249" rx="1" transform="matrix(1.19249e-08 -1 -1 -1.19249e-08 1857.31 592.499)" fill="#2F2295"/>
<rect opacity="0.8" width="296.249" height="296.249" rx="1" transform="matrix(1.19249e-08 -1 -1 -1.19249e-08 1561.06 296.249)" fill="#2F2295"/>
<rect opacity="0.4" width="296.249" height="296.249" rx="1" transform="matrix(1.19249e-08 -1 -1 -1.19249e-08 1561.06 888.748)" fill="#2F2295"/>
<rect x="1619.48" y="1408" width="963.181" height="1275.15" rx="15" transform="rotate(-90 1619.48 1408)" fill="url(#paint1_linear_57_286)"/>
<rect x="699" y="1111.45" width="963.181" height="1275.15" rx="15" transform="rotate(-90 699 1111.45)" fill="url(#paint2_linear_57_286)"/>
<rect x="1857.9" y="592.795" width="296.249" height="296.249" rx="1" fill="#2F2295"/>
<rect opacity="0.3" x="2450.4" y="592.795" width="296.249" height="296.249" rx="1" fill="#2F2295"/>
<rect opacity="0.5" x="2746.65" y="296.546" width="296.249" height="296.249" rx="1" fill="#2F2295"/>
<rect opacity="0.8" x="2746.65" y="889.045" width="296.249" height="296.249" rx="1" fill="#2F2295"/>
<rect opacity="0.8" x="2154.15" y="296.546" width="296.249" height="296.249" rx="1" fill="#2F2295"/>
<rect opacity="0.4" x="2154.15" y="889.045" width="296.249" height="296.249" rx="1" fill="#2F2295"/>
<defs>
<linearGradient id="paint0_linear_57_286" x1="1563.5" y1="0" x2="1563.5" y2="1421" gradientUnits="userSpaceOnUse">
<stop stop-color="#2F2295"/>
<stop offset="1"/>
</linearGradient>
<linearGradient id="paint1_linear_57_286" x1="2101.07" y1="899.124" x2="2101.07" y2="2363.62" gradientUnits="userSpaceOnUse">
<stop stop-color="#3D29D6"/>
<stop offset="1" stop-color="#5948D5" stop-opacity="0"/>
</linearGradient>
<linearGradient id="paint2_linear_57_286" x1="1180.59" y1="602.579" x2="1180.59" y2="2067.08" gradientUnits="userSpaceOnUse">
<stop stop-color="#3D29D6"/>
<stop offset="1" stop-color="#5948D5" stop-opacity="0"/>
</linearGradient>
</defs>
</svg>
