<svg width="782" height="232" viewBox="0 0 782 232" fill="none" xmlns="http://www.w3.org/2000/svg">
<path d="M290.93 197.103C290.93 196.082 291.1 195.12 291.441 194.215C291.781 193.311 292.273 192.523 292.918 191.851C293.562 191.18 294.344 190.647 295.264 190.254C296.184 189.86 297.233 189.662 298.41 189.662C299.184 189.662 299.892 189.73 300.537 189.865C301.18 189.998 301.805 190.191 302.412 190.441L301.558 193.637C301.171 193.494 300.747 193.369 300.288 193.261C299.828 193.154 299.311 193.101 298.742 193.101C297.527 193.101 296.621 193.468 296.024 194.202C295.424 194.935 295.126 195.904 295.126 197.103C295.126 198.374 295.406 199.358 295.968 200.057C296.529 200.756 297.509 201.105 298.907 201.105C299.404 201.105 299.938 201.061 300.509 200.97C301.078 200.881 301.603 200.737 302.082 200.54L302.662 203.818C302.183 204.014 301.585 204.184 300.868 204.327C300.149 204.471 299.358 204.543 298.494 204.543C297.169 204.543 296.028 204.35 295.071 203.965C294.114 203.581 293.327 203.056 292.711 202.393C292.094 201.732 291.644 200.948 291.358 200.043C291.073 199.139 290.93 198.159 290.93 197.103Z" fill="white" fill-opacity="0.68"/>
<path d="M316.325 197.075C316.325 195.84 316.072 194.868 315.565 194.161C315.06 193.454 314.338 193.101 313.399 193.101C312.46 193.101 311.733 193.454 311.218 194.161C310.703 194.868 310.445 195.84 310.445 197.075C310.445 198.311 310.703 199.291 311.218 200.017C311.733 200.74 312.46 201.104 313.399 201.104C314.338 201.104 315.06 200.74 315.565 200.017C316.072 199.291 316.325 198.311 316.325 197.075ZM320.52 197.075C320.52 198.186 320.355 199.202 320.023 200.123C319.693 201.047 319.213 201.834 318.588 202.487C317.962 203.141 317.212 203.647 316.339 204.005C315.465 204.363 314.485 204.542 313.399 204.542C312.332 204.542 311.36 204.363 310.486 204.005C309.613 203.647 308.862 203.141 308.237 202.487C307.612 201.834 307.123 201.047 306.774 200.123C306.425 199.202 306.251 198.186 306.251 197.075C306.251 195.966 306.429 194.954 306.788 194.04C307.147 193.127 307.644 192.349 308.279 191.704C308.914 191.059 309.668 190.558 310.542 190.199C311.415 189.842 312.368 189.662 313.399 189.662C314.448 189.662 315.409 189.842 316.283 190.199C317.157 190.558 317.907 191.059 318.533 191.704C319.158 192.349 319.646 193.127 319.995 194.04C320.345 194.954 320.52 195.966 320.52 197.075Z" fill="white" fill-opacity="0.68"/>
<path d="M325.903 190.523C326.603 190.325 327.504 190.143 328.609 189.972C329.712 189.801 330.871 189.717 332.086 189.717C333.318 189.717 334.345 189.874 335.163 190.187C335.982 190.5 336.631 190.943 337.109 191.516C337.588 192.089 337.928 192.77 338.131 193.557C338.333 194.345 338.435 195.222 338.435 196.188V204.166H334.321V196.672C334.321 195.383 334.146 194.47 333.798 193.933C333.448 193.396 332.794 193.127 331.838 193.127C331.543 193.127 331.23 193.141 330.899 193.169C330.568 193.194 330.273 193.225 330.016 193.261V204.166H325.903V190.523Z" fill="white" fill-opacity="0.68"/>
<path d="M348.536 201.293C349.29 201.293 349.825 201.222 350.137 201.078C350.45 200.935 350.607 200.657 350.607 200.245C350.607 199.923 350.405 199.64 350 199.399C349.595 199.157 348.978 198.884 348.151 198.58C347.506 198.347 346.922 198.105 346.398 197.855C345.873 197.604 345.427 197.305 345.058 196.956C344.69 196.605 344.406 196.188 344.204 195.706C344.001 195.222 343.899 194.641 343.899 193.959C343.899 192.636 344.406 191.588 345.418 190.817C346.43 190.048 347.819 189.662 349.585 189.662C350.47 189.662 351.315 189.74 352.125 189.891C352.935 190.042 353.578 190.21 354.057 190.388L353.34 193.504C352.861 193.342 352.341 193.2 351.779 193.074C351.218 192.949 350.589 192.886 349.889 192.886C348.6 192.886 347.957 193.236 347.957 193.934C347.957 194.095 347.984 194.238 348.039 194.363C348.096 194.489 348.206 194.61 348.371 194.727C348.536 194.842 348.762 194.967 349.048 195.104C349.332 195.238 349.695 195.388 350.137 195.551C351.039 195.874 351.784 196.196 352.373 196.512C352.963 196.827 353.427 197.168 353.767 197.534C354.108 197.9 354.347 198.307 354.485 198.754C354.622 199.2 354.692 199.718 354.692 200.308C354.692 201.702 354.154 202.757 353.078 203.47C352.001 204.184 350.477 204.543 348.509 204.543C347.221 204.543 346.15 204.435 345.293 204.22C344.438 204.006 343.844 203.827 343.513 203.683L344.204 200.433C344.902 200.701 345.62 200.913 346.356 201.064C347.092 201.216 347.819 201.293 348.536 201.293Z" fill="white" fill-opacity="0.68"/>
<path d="M372.358 203.683C371.658 203.88 370.757 204.063 369.653 204.233C368.549 204.404 367.389 204.488 366.175 204.488C364.941 204.488 363.916 204.327 363.096 204.006C362.277 203.683 361.63 203.231 361.151 202.648C360.673 202.067 360.331 201.373 360.129 200.567C359.927 199.762 359.827 198.876 359.827 197.909V190.039H363.939V197.425C363.939 198.715 364.114 199.645 364.463 200.218C364.813 200.792 365.466 201.077 366.423 201.077C366.717 201.077 367.03 201.064 367.362 201.037C367.693 201.01 367.987 200.98 368.245 200.943V190.039H372.358V203.683Z" fill="white" fill-opacity="0.68"/>
<path d="M384.226 204.434C383.029 204.417 382.059 204.291 381.314 204.059C380.568 203.827 379.98 203.499 379.548 203.079C379.114 202.658 378.821 202.148 378.664 201.548C378.507 200.948 378.429 200.272 378.429 199.519V183.969L382.542 183.323V198.715C382.542 199.072 382.569 199.395 382.625 199.681C382.68 199.967 382.786 200.209 382.942 200.407C383.098 200.603 383.323 200.764 383.619 200.889C383.913 201.014 384.308 201.094 384.806 201.131L384.226 204.434Z" fill="white" fill-opacity="0.68"/>
<path d="M389.222 186.521L393.335 185.875V190.039H398.276V193.369H393.335V198.338C393.335 199.179 393.487 199.852 393.791 200.352C394.094 200.854 394.705 201.105 395.626 201.105C396.068 201.105 396.522 201.064 396.992 200.983C397.461 200.903 397.889 200.792 398.276 200.648L398.855 203.763C398.359 203.961 397.806 204.131 397.199 204.275C396.592 204.417 395.847 204.489 394.963 204.489C393.841 204.489 392.911 204.341 392.175 204.045C391.44 203.75 390.851 203.339 390.409 202.809C389.968 202.282 389.659 201.642 389.484 200.889C389.309 200.139 389.222 199.304 389.222 198.392V186.521Z" fill="white" fill-opacity="0.68"/>
<path d="M407.937 204.166H403.824V190.038H407.937V204.166ZM408.324 185.956C408.324 186.691 408.079 187.267 407.592 187.689C407.104 188.11 406.528 188.319 405.866 188.319C405.204 188.319 404.628 188.11 404.142 187.689C403.654 187.267 403.41 186.691 403.41 185.956C403.41 185.222 403.654 184.645 404.142 184.225C404.628 183.803 405.204 183.592 405.866 183.592C406.528 183.592 407.104 183.803 407.592 184.225C408.079 184.645 408.324 185.222 408.324 185.956Z" fill="white" fill-opacity="0.68"/>
<path d="M414.008 190.523C414.708 190.325 415.609 190.143 416.713 189.972C417.818 189.801 418.977 189.717 420.191 189.717C421.424 189.717 422.45 189.874 423.269 190.187C424.088 190.5 424.736 190.943 425.215 191.516C425.693 192.089 426.034 192.77 426.237 193.557C426.439 194.345 426.54 195.222 426.54 196.188V204.166H422.427V196.672C422.427 195.383 422.252 194.47 421.903 193.933C421.553 193.396 420.9 193.127 419.944 193.127C419.649 193.127 419.336 193.141 419.005 193.169C418.674 193.194 418.379 193.225 418.122 193.261V204.166H414.008V190.523Z" fill="white" fill-opacity="0.68"/>
<path d="M435.98 196.646C435.98 198.885 436.909 200.003 438.767 200.003C439.191 200.003 439.586 199.95 439.954 199.841C440.322 199.735 440.635 199.609 440.893 199.467V193.074C440.69 193.039 440.451 193.006 440.175 192.98C439.899 192.953 439.577 192.939 439.209 192.939C438.124 192.939 437.314 193.288 436.78 193.987C436.246 194.685 435.98 195.571 435.98 196.646ZM445.005 202.393C445.005 204.703 444.403 206.418 443.198 207.537C441.992 208.657 440.129 209.216 437.608 209.216C436.725 209.216 435.841 209.139 434.959 208.987C434.074 208.835 433.256 208.633 432.502 208.383L433.22 205.026C433.864 205.277 434.539 205.474 435.248 205.616C435.956 205.76 436.762 205.832 437.663 205.832C438.841 205.832 439.674 205.58 440.161 205.079C440.649 204.578 440.893 203.934 440.893 203.146V202.635C440.451 202.832 439.995 202.98 439.526 203.079C439.057 203.177 438.547 203.226 437.994 203.226C435.988 203.226 434.451 202.649 433.385 201.494C432.317 200.34 431.784 198.723 431.784 196.646C431.784 195.608 431.95 194.664 432.281 193.812C432.612 192.962 433.095 192.233 433.73 191.623C434.365 191.015 435.142 190.545 436.063 190.213C436.982 189.882 438.022 189.717 439.182 189.717C439.678 189.717 440.188 189.739 440.713 189.783C441.237 189.829 441.758 189.887 442.273 189.958C442.788 190.03 443.281 190.115 443.75 190.213C444.219 190.312 444.638 190.415 445.005 190.523V202.393Z" fill="white" fill-opacity="0.68"/>
<path d="M465.459 201.373C465.863 201.373 466.25 201.363 466.618 201.346C466.987 201.329 467.281 201.301 467.502 201.266V198.229C467.337 198.195 467.088 198.159 466.757 198.123C466.426 198.087 466.123 198.069 465.846 198.069C465.459 198.069 465.096 198.092 464.756 198.137C464.414 198.18 464.116 198.267 463.859 198.392C463.601 198.516 463.398 198.687 463.251 198.902C463.104 199.116 463.03 199.385 463.03 199.707C463.03 200.334 463.247 200.768 463.679 201.01C464.111 201.251 464.704 201.373 465.459 201.373ZM465.128 189.662C466.343 189.662 467.354 189.797 468.164 190.066C468.974 190.335 469.623 190.72 470.11 191.22C470.597 191.721 470.942 192.331 471.145 193.047C471.347 193.762 471.449 194.56 471.449 195.437V203.763C470.86 203.889 470.041 204.037 468.993 204.207C467.944 204.376 466.674 204.461 465.183 204.461C464.245 204.461 463.393 204.381 462.63 204.22C461.866 204.058 461.209 203.794 460.656 203.428C460.104 203.06 459.681 202.581 459.387 201.991C459.092 201.399 458.945 200.674 458.945 199.815C458.945 198.991 459.115 198.294 459.455 197.72C459.797 197.148 460.252 196.69 460.822 196.351C461.392 196.01 462.045 195.764 462.782 195.612C463.517 195.46 464.281 195.383 465.073 195.383C465.606 195.383 466.081 195.406 466.495 195.45C466.908 195.496 467.244 195.553 467.502 195.626V195.249C467.502 194.569 467.29 194.024 466.867 193.61C466.443 193.2 465.708 192.993 464.659 192.993C463.959 192.993 463.269 193.043 462.588 193.141C461.908 193.24 461.319 193.378 460.822 193.556L460.298 190.335C460.536 190.261 460.836 190.186 461.195 190.106C461.553 190.025 461.945 189.954 462.368 189.891C462.791 189.829 463.237 189.774 463.707 189.73C464.176 189.685 464.649 189.662 465.128 189.662Z" fill="white" fill-opacity="0.68"/>
<path d="M477.383 190.523C478.082 190.325 478.984 190.143 480.088 189.972C481.193 189.801 482.352 189.717 483.566 189.717C484.798 189.717 485.825 189.874 486.644 190.187C487.462 190.5 488.111 190.943 488.59 191.516C489.068 192.089 489.408 192.77 489.611 193.557C489.813 194.345 489.915 195.222 489.915 196.188V204.166H485.802V196.672C485.802 195.383 485.627 194.47 485.278 193.933C484.928 193.396 484.274 193.127 483.317 193.127C483.023 193.127 482.71 193.141 482.379 193.169C482.048 193.194 481.753 193.225 481.496 193.261V204.166H477.383V190.523Z" fill="white" fill-opacity="0.68"/>
<path d="M499.355 196.995C499.355 198.229 499.64 199.225 500.21 199.976C500.781 200.729 501.627 201.105 502.75 201.105C503.118 201.105 503.458 201.092 503.771 201.064C504.084 201.038 504.341 201.007 504.544 200.971V193.691C504.287 193.53 503.95 193.397 503.537 193.288C503.122 193.181 502.703 193.128 502.281 193.128C500.33 193.128 499.355 194.417 499.355 196.995ZM508.657 203.71C508.289 203.818 507.865 203.92 507.387 204.019C506.908 204.118 506.407 204.202 505.883 204.275C505.358 204.345 504.824 204.404 504.282 204.449C503.74 204.493 503.219 204.515 502.723 204.515C501.526 204.515 500.459 204.345 499.52 204.006C498.581 203.665 497.791 203.177 497.147 202.541C496.502 201.906 496.01 201.136 495.669 200.231C495.329 199.327 495.16 198.311 495.16 197.183C495.16 196.038 495.306 195.003 495.6 194.08C495.895 193.159 496.319 192.376 496.87 191.73C497.422 191.086 498.099 190.594 498.899 190.254C499.7 189.914 500.615 189.743 501.646 189.743C502.215 189.743 502.727 189.798 503.178 189.905C503.628 190.011 504.084 190.164 504.544 190.36V183.969L508.657 183.324V203.71Z" fill="white" fill-opacity="0.68"/>
<path d="M527.067 196.995C527.067 198.229 527.352 199.225 527.923 199.976C528.493 200.729 529.34 201.105 530.463 201.105C530.83 201.105 531.17 201.092 531.483 201.064C531.796 201.038 532.053 201.007 532.256 200.971V193.691C531.998 193.53 531.663 193.397 531.249 193.288C530.834 193.181 530.416 193.128 529.992 193.128C528.043 193.128 527.067 194.417 527.067 196.995ZM536.369 203.71C536.001 203.818 535.579 203.92 535.099 204.019C534.621 204.118 534.119 204.202 533.595 204.275C533.07 204.345 532.537 204.404 531.994 204.449C531.451 204.493 530.932 204.515 530.434 204.515C529.238 204.515 528.172 204.345 527.233 204.006C526.294 203.665 525.503 203.177 524.859 202.541C524.215 201.906 523.723 201.136 523.381 200.231C523.041 199.327 522.872 198.311 522.872 197.183C522.872 196.038 523.019 195.003 523.313 194.08C523.608 193.159 524.03 192.376 524.583 191.73C525.135 191.086 525.811 190.594 526.611 190.254C527.411 189.914 528.328 189.743 529.358 189.743C529.929 189.743 530.439 189.798 530.89 189.905C531.341 190.011 531.796 190.164 532.256 190.36V183.969L536.369 183.324V203.71Z" fill="white" fill-opacity="0.68"/>
<path d="M551.413 195.68C551.394 195.339 551.334 195.007 551.232 194.685C551.132 194.363 550.976 194.077 550.764 193.825C550.551 193.575 550.285 193.37 549.964 193.208C549.641 193.047 549.242 192.966 548.764 192.966C548.302 192.966 547.907 193.042 547.575 193.194C547.245 193.347 546.969 193.549 546.748 193.799C546.526 194.05 546.357 194.341 546.238 194.673C546.117 195.003 546.03 195.339 545.974 195.68H551.413ZM541.752 197.209C541.752 195.956 541.95 194.861 542.345 193.92C542.74 192.98 543.26 192.197 543.904 191.569C544.548 190.944 545.289 190.469 546.127 190.146C546.964 189.823 547.824 189.663 548.708 189.663C550.768 189.663 552.397 190.277 553.594 191.503C554.789 192.729 555.387 194.532 555.387 196.914C555.387 197.148 555.378 197.403 555.359 197.68C555.341 197.958 555.322 198.205 555.304 198.418H545.974C546.067 199.242 546.463 199.896 547.163 200.379C547.861 200.863 548.799 201.105 549.978 201.105C550.732 201.105 551.473 201.038 552.199 200.904C552.926 200.769 553.52 200.603 553.979 200.406L554.532 203.655C554.31 203.763 554.015 203.872 553.649 203.978C553.281 204.087 552.871 204.179 552.42 204.26C551.969 204.342 551.486 204.409 550.97 204.461C550.456 204.516 549.941 204.543 549.425 204.543C548.119 204.543 546.982 204.355 546.016 203.978C545.05 203.603 544.25 203.088 543.616 202.433C542.979 201.781 542.511 201.007 542.207 200.111C541.903 199.217 541.752 198.248 541.752 197.209Z" fill="white" fill-opacity="0.68"/>
<path d="M564.738 204.166C563.795 202.376 562.839 200.281 561.869 197.881C560.9 195.483 559.981 192.868 559.114 190.038H563.475C563.659 190.737 563.876 191.494 564.126 192.309C564.376 193.124 564.635 193.947 564.902 194.779C565.171 195.611 565.439 196.423 565.707 197.21C565.974 197.998 566.239 198.715 566.497 199.359C566.737 198.715 566.997 197.998 567.272 197.21C567.55 196.423 567.821 195.611 568.09 194.779C568.358 193.947 568.617 193.124 568.866 192.309C569.115 191.494 569.333 190.737 569.517 190.038H573.77C572.902 192.868 571.984 195.483 571.015 197.881C570.047 200.281 569.092 202.376 568.151 204.166H564.738Z" fill="white" fill-opacity="0.68"/>
<path d="M586.744 195.68C586.725 195.339 586.665 195.007 586.564 194.685C586.463 194.363 586.306 194.077 586.095 193.825C585.882 193.575 585.616 193.37 585.294 193.208C584.971 193.047 584.572 192.966 584.095 192.966C583.634 192.966 583.237 193.042 582.906 193.194C582.576 193.347 582.3 193.549 582.079 193.799C581.857 194.05 581.688 194.341 581.568 194.673C581.448 195.003 581.361 195.339 581.305 195.68H586.744ZM577.083 197.209C577.083 195.956 577.28 194.861 577.675 193.92C578.07 192.98 578.591 192.197 579.235 191.569C579.879 190.944 580.62 190.469 581.458 190.146C582.295 189.823 583.155 189.663 584.039 189.663C586.1 189.663 587.728 190.277 588.924 191.503C590.12 192.729 590.718 194.532 590.718 196.914C590.718 197.148 590.71 197.403 590.69 197.68C590.672 197.958 590.653 198.205 590.634 198.418H581.305C581.398 199.242 581.793 199.896 582.494 200.379C583.192 200.863 584.13 201.105 585.309 201.105C586.063 201.105 586.803 201.038 587.53 200.904C588.257 200.769 588.851 200.603 589.31 200.406L589.863 203.655C589.641 203.763 589.347 203.872 588.98 203.978C588.612 204.087 588.202 204.179 587.751 204.26C587.3 204.342 586.817 204.409 586.302 204.461C585.786 204.516 585.272 204.543 584.756 204.543C583.45 204.543 582.313 204.355 581.347 203.978C580.381 203.603 579.581 203.088 578.946 202.433C578.31 201.781 577.842 201.007 577.538 200.111C577.234 199.217 577.083 198.248 577.083 197.209Z" fill="white" fill-opacity="0.68"/>
<path d="M601.897 204.434C600.701 204.417 599.731 204.291 598.985 204.059C598.24 203.827 597.65 203.499 597.219 203.079C596.787 202.658 596.492 202.148 596.335 201.548C596.179 200.948 596.101 200.272 596.101 199.519V183.969L600.214 183.323V198.715C600.214 199.072 600.241 199.395 600.297 199.681C600.352 199.967 600.458 200.209 600.615 200.407C600.769 200.603 600.995 200.764 601.289 200.889C601.584 201.014 601.98 201.094 602.477 201.131L601.897 204.434Z" fill="white" fill-opacity="0.68"/>
<path d="M616.417 197.075C616.417 195.84 616.163 194.868 615.657 194.161C615.151 193.454 614.429 193.101 613.49 193.101C612.552 193.101 611.825 193.454 611.309 194.161C610.795 194.868 610.537 195.84 610.537 197.075C610.537 198.311 610.795 199.291 611.309 200.017C611.825 200.74 612.552 201.104 613.49 201.104C614.429 201.104 615.151 200.74 615.657 200.017C616.163 199.291 616.417 198.311 616.417 197.075ZM620.613 197.075C620.613 198.186 620.446 199.202 620.116 200.123C619.784 201.047 619.305 201.834 618.68 202.487C618.053 203.141 617.305 203.647 616.431 204.005C615.555 204.363 614.576 204.542 613.49 204.542C612.422 204.542 611.452 204.363 610.579 204.005C609.704 203.647 608.954 203.141 608.328 202.487C607.703 201.834 607.215 201.047 606.866 200.123C606.517 199.202 606.342 198.186 606.342 197.075C606.342 195.966 606.521 194.954 606.88 194.04C607.239 193.127 607.736 192.349 608.371 191.704C609.005 191.059 609.759 190.558 610.634 190.199C611.507 189.842 612.46 189.662 613.49 189.662C614.54 189.662 615.502 189.842 616.375 190.199C617.249 190.558 617.999 191.059 618.624 191.704C619.251 192.349 619.738 193.127 620.088 194.04C620.437 194.954 620.613 195.966 620.613 197.075Z" fill="white" fill-opacity="0.68"/>
<path d="M635.295 197.209C635.295 195.975 635.011 194.986 634.44 194.243C633.87 193.5 633.023 193.127 631.901 193.127C631.533 193.127 631.193 193.141 630.881 193.168C630.566 193.194 630.309 193.226 630.107 193.262V200.487C630.364 200.647 630.7 200.783 631.115 200.89C631.528 200.996 631.947 201.051 632.37 201.051C634.321 201.051 635.295 199.771 635.295 197.209ZM639.493 197.103C639.493 198.196 639.354 199.188 639.078 200.085C638.802 200.98 638.396 201.749 637.863 202.394C637.329 203.037 636.666 203.54 635.876 203.898C635.084 204.256 634.173 204.435 633.143 204.435C632.572 204.435 632.04 204.381 631.542 204.275C631.046 204.166 630.566 204.014 630.107 203.817V209.135H625.994V190.523C626.361 190.414 626.785 190.312 627.263 190.214C627.743 190.115 628.244 190.03 628.768 189.958C629.292 189.888 629.826 189.828 630.369 189.783C630.912 189.74 631.432 189.716 631.929 189.716C633.124 189.716 634.191 189.891 635.13 190.239C636.069 190.59 636.859 191.081 637.504 191.717C638.148 192.353 638.641 193.127 638.981 194.041C639.32 194.955 639.493 195.975 639.493 197.103Z" fill="white" fill-opacity="0.68"/>
<path d="M652.851 196.672C652.851 195.383 652.681 194.47 652.34 193.933C652 193.396 651.416 193.126 650.588 193.126C650.331 193.126 650.063 193.141 649.787 193.168C649.511 193.194 649.245 193.225 648.987 193.261V204.166H644.874V190.523C645.223 190.433 645.634 190.339 646.103 190.239C646.571 190.143 647.068 190.053 647.593 189.972C648.117 189.891 648.656 189.829 649.208 189.784C649.76 189.739 650.302 189.716 650.835 189.716C651.884 189.716 652.737 189.846 653.39 190.107C654.042 190.366 654.581 190.674 655.005 191.032C655.593 190.621 656.27 190.298 657.033 190.066C657.796 189.833 658.501 189.716 659.146 189.716C660.304 189.716 661.256 189.873 662.002 190.186C662.746 190.5 663.341 190.943 663.782 191.516C664.225 192.089 664.527 192.77 664.692 193.556C664.859 194.345 664.942 195.222 664.942 196.188V204.166H660.829V196.672C660.829 195.383 660.659 194.47 660.318 193.933C659.977 193.396 659.393 193.126 658.565 193.126C658.344 193.126 658.036 193.181 657.64 193.287C657.244 193.396 656.918 193.53 656.659 193.691C656.788 194.104 656.871 194.537 656.909 194.994C656.945 195.45 656.964 195.939 656.964 196.457V204.166H652.851V196.672Z" fill="white" fill-opacity="0.68"/>
<path d="M679.847 195.68C679.828 195.339 679.768 195.007 679.667 194.685C679.566 194.363 679.41 194.077 679.197 193.825C678.985 193.575 678.719 193.37 678.398 193.208C678.075 193.047 677.675 192.966 677.197 192.966C676.736 192.966 676.341 193.042 676.009 193.194C675.678 193.347 675.402 193.549 675.182 193.799C674.96 194.05 674.79 194.341 674.671 194.673C674.55 195.003 674.463 195.339 674.408 195.68H679.847ZM670.186 197.209C670.186 195.956 670.383 194.861 670.778 193.92C671.174 192.98 671.694 192.197 672.339 191.569C672.981 190.944 673.723 190.469 674.561 190.146C675.397 189.823 676.257 189.663 677.141 189.663C679.202 189.663 680.831 190.277 682.027 191.503C683.222 192.729 683.821 194.532 683.821 196.914C683.821 197.148 683.812 197.403 683.793 197.68C683.774 197.958 683.756 198.205 683.737 198.418H674.408C674.501 199.242 674.896 199.896 675.596 200.379C676.295 200.863 677.233 201.105 678.411 201.105C679.165 201.105 679.907 201.038 680.632 200.904C681.359 200.769 681.953 200.603 682.412 200.406L682.965 203.655C682.745 203.763 682.45 203.872 682.082 203.978C681.714 204.087 681.305 204.179 680.854 204.26C680.402 204.342 679.919 204.409 679.404 204.461C678.89 204.516 678.374 204.543 677.858 204.543C676.552 204.543 675.416 204.355 674.45 203.978C673.484 203.603 672.684 203.088 672.05 202.433C671.413 201.781 670.945 201.007 670.641 200.111C670.337 199.217 670.186 198.248 670.186 197.209Z" fill="white" fill-opacity="0.68"/>
<path d="M689.204 190.523C689.902 190.325 690.804 190.143 691.909 189.972C693.011 189.801 694.172 189.717 695.386 189.717C696.62 189.717 697.644 189.874 698.464 190.187C699.283 190.5 699.932 190.943 700.411 191.516C700.889 192.089 701.229 192.77 701.431 193.557C701.633 194.345 701.735 195.222 701.735 196.188V204.166H697.622V196.672C697.622 195.383 697.447 194.47 697.097 193.933C696.747 193.396 696.095 193.127 695.138 193.127C694.843 193.127 694.531 193.141 694.199 193.169C693.869 193.194 693.574 193.225 693.317 193.261V204.166H689.204V190.523Z" fill="white" fill-opacity="0.68"/>
<path d="M707.531 186.521L711.644 185.875V190.039H716.585V193.369H711.644V198.338C711.644 199.179 711.796 199.852 712.1 200.352C712.403 200.854 713.015 201.105 713.935 201.105C714.376 201.105 714.832 201.064 715.301 200.983C715.77 200.903 716.198 200.792 716.585 200.648L717.165 203.763C716.667 203.961 716.116 204.131 715.508 204.275C714.902 204.417 714.157 204.489 713.272 204.489C712.149 204.489 711.22 204.341 710.484 204.045C709.749 203.75 709.16 203.339 708.718 202.809C708.277 202.282 707.967 201.642 707.793 200.889C707.618 200.139 707.531 199.304 707.531 198.392V186.521Z" fill="white" fill-opacity="0.68"/>
<path d="M706.932 109.659H661.467C660.794 109.659 660.326 108.994 660.557 108.365L661.034 107.063C662.306 103.601 668.231 88.113 673.457 74.4475C677.873 62.9026 682.044 51.9974 682.382 51.0309L683.215 48.6369C683.507 47.8018 684.683 47.7641 685.026 48.5799L686.014 50.9149C687.029 53.3167 705.124 100.713 707.387 107.083L707.846 108.375C708.069 109.001 707.6 109.659 706.932 109.659ZM669.98 20.5733C663.209 35.7214 629.027 120.651 615.651 155.213C615.411 155.832 615.863 156.499 616.533 156.518C625.989 156.783 635.362 157.082 644.475 157.41C644.904 157.425 645.286 157.165 645.422 156.762C648.253 148.442 652.059 137.42 653.381 133.628L653.608 132.975C653.744 132.588 654.112 132.327 654.525 132.327H714.213C714.626 132.327 714.994 132.587 715.13 132.973L715.358 133.622C716.973 138.21 721.952 152.499 724.745 160.694C724.87 161.064 725.208 161.313 725.6 161.339C735.927 161.98 746.11 162.673 755.961 163.403C756.667 163.456 757.186 162.767 756.937 162.109C746.847 135.533 707.237 37.2736 699.857 20.5753C699.702 20.2244 699.356 20.0002 698.97 20.0002H670.868C670.483 20.0002 670.138 20.2244 669.98 20.5733Z" fill="white"/>
<path d="M450.902 20.0004H423.349C422.818 20.0004 422.386 20.4302 422.386 20.9613V154.479C422.386 155.017 422.827 155.448 423.366 155.439C443.695 155.023 464.454 154.763 485.165 154.664C485.694 154.661 486.122 154.232 486.122 153.704V131.712C486.122 131.181 485.691 130.751 485.16 130.751H452.827C452.295 130.751 451.864 130.321 451.864 129.79V20.9613C451.864 20.4302 451.433 20.0004 450.902 20.0004Z" fill="white"/>
<path d="M347.54 107.082L347.999 108.374C348.222 109.001 347.754 109.659 347.085 109.659H301.62C300.947 109.659 300.478 108.994 300.708 108.365L301.186 107.063C303.543 100.642 305.885 94.447 308.147 88.6518C310.449 82.7484 312.529 77.3544 314.328 72.6195C316.174 67.756 317.819 63.4677 319.264 59.7553C320.693 56.0875 321.793 53.1522 322.533 51.0307L323.367 48.6376C323.659 47.8026 324.833 47.7649 325.179 48.5806L326.165 50.9147C327.095 53.1097 328.285 56.0556 329.704 59.6703C331.158 63.3729 332.846 67.6497 334.774 72.5064C336.715 77.3998 338.774 82.8257 340.896 88.6335C342.99 94.3619 345.225 100.57 347.54 107.082ZM310.137 20.5714C302.964 36.6839 263.409 134.962 253.151 162.111C252.902 162.769 253.42 163.456 254.128 163.403C263.615 162.699 273.421 162.031 283.36 161.408C283.754 161.384 284.092 161.133 284.216 160.762C286.988 152.543 291.929 138.225 293.531 133.627L293.759 132.975C293.894 132.587 294.262 132.326 294.675 132.326H354.368C354.78 132.326 355.147 132.585 355.283 132.972L355.512 133.621C356.876 137.495 360.745 148.59 363.568 156.803C363.706 157.205 364.087 157.463 364.514 157.447C373.977 157.105 383.718 156.793 393.555 156.517C394.225 156.498 394.677 155.831 394.436 155.211C381.013 120.655 346.662 35.6933 340.01 20.5781C339.855 20.2263 339.507 20.0002 339.12 20.0002H311.022C310.638 20.0002 310.292 20.2225 310.137 20.5714Z" fill="white"/>
<path d="M600.678 79.1808H544.535C544.002 79.1808 543.57 78.7489 543.57 78.2152V45.1819C543.57 44.6483 544.002 44.2154 544.535 44.2154H600.678C601.212 44.2154 601.645 43.7834 601.645 43.2498V20.9667C601.645 20.4331 601.212 20.0011 600.678 20.0011H514.972C514.438 20.0011 514.007 20.4331 514.007 20.9667V154.311C514.007 154.843 514.436 155.274 514.968 155.275C524.199 155.299 533.466 155.354 542.6 155.439C543.136 155.445 543.57 155.011 543.57 154.474V104.362C543.57 103.828 544.002 103.396 544.535 103.396H600.678C601.212 103.396 601.644 102.964 601.644 102.43V80.1464C601.644 79.6128 601.212 79.1808 600.678 79.1808Z" fill="white"/>
<rect x="24" y="65.8102" width="45.8103" height="45.8103" rx="1" fill="white"/>
<rect opacity="0.3" x="115.621" y="65.8102" width="45.8103" height="45.8103" rx="1" fill="white"/>
<rect opacity="0.5" x="161.431" y="20" width="45.8103" height="45.8103" rx="1" fill="white"/>
<rect opacity="0.8" x="161.431" y="111.621" width="45.8103" height="45.8103" rx="1" fill="white"/>
<rect opacity="0.8" x="69.8102" y="20" width="45.8103" height="45.8103" rx="1" fill="white"/>
<rect opacity="0.4" x="69.8102" y="111.621" width="45.8103" height="45.8103" rx="1" fill="white"/>
</svg>
